<?xml version="1.0" standalone="no"?>
<!DOCTYPE svg PUBLIC "-//W3C//DTD SVG 20010904//EN"
 "http://www.w3.org/TR/2001/REC-SVG-20010904/DTD/svg10.dtd">
<svg version="1.0" xmlns="http://www.w3.org/2000/svg"
 width="260.000000pt" height="260.000000pt" viewBox="0 0 260.000000 260.000000"
 preserveAspectRatio="xMidYMid meet">
<metadata>
Created by potrace 1.11, written by Peter Selinger 2001-2013
</metadata>
<g transform="translate(0.000000,260.000000) scale(0.100000,-0.100000)"
fill="#000000" stroke="none">
<path d="M16 2584 c-14 -14 -16 -144 -16 -1284 0 -1140 2 -1270 16 -1284 14
-14 144 -16 1284 -16 1140 0 1270 2 1284 16 14 14 16 144 16 1284 0 1140 -2
1270 -16 1284 -14 14 -144 16 -1284 16 -1140 0 -1270 -2 -1284 -16z m2481 -88
c12 -12 10 -2396 -2 -2397 -38 -4 -2388 -3 -2393 1 -4 3 -7 543 -7 1200 0 927
3 1196 12 1200 20 8 2382 5 2390 -4z"/>
<path d="M460 1910 l0 -270 60 0 60 0 0 105 0 105 105 0 105 0 0 -105 0 -105
60 0 60 0 0 270 0 270 -60 0 -60 0 0 -115 0 -115 -105 0 -105 0 0 115 0 115
-60 0 -60 0 0 -270z"/>
<path d="M1291 1341 c-445 -443 -811 -814 -815 -824 -3 -10 2 -25 14 -37 21
-21 37 -25 58 -11 23 14 1603 1595 1613 1613 13 25 -4 54 -35 60 -22 5 -123
-92 -835 -801z"/>
<path d="M1640 660 l0 -270 60 0 60 0 0 105 0 105 115 0 115 0 0 55 0 55 -115
0 -115 0 0 55 0 55 125 0 125 0 0 55 0 55 -185 0 -185 0 0 -270z"/>
</g>
</svg>
